<svg xmlns="http://www.w3.org/2000/svg" width="32" height="32" viewBox="0 0 32 32"><path fill="#ffffff" d="M14.948 1a5 5 0 0 0-3.2 1.159l-3.3 2.75a4 4 0 0 0-1.224 4.37l.361 1.053l-.038 1.181a2 2 0 0 1-.812 1.546L2.05 16.515a2.485 2.485 0 0 0 1.058 4.45a4 4 0 0 0-.343 3.64l.235.588V27a4 4 0 0 0 4 4h15a5 5 0 0 0 5-5v-2.085c.156.055.325.085.5.085h1a2.5 2.5 0 0 0 2.5-2.5v-14A2.5 2.5 0 0 0 28.5 5h-1c-.205 0-.4.041-.578.115A5.002 5.002 0 0 0 22 1zM27 7h1.5a.5.5 0 0 1 .5.5v14a.5.5 0 0 1-.5.5H27zM13.028 3.695A3 3 0 0 1 14.948 3H22a3 3 0 0 1 3 3v3.789a42.58 42.58 0 0 0-4.93 4.219c-1.989 1.992-3.918 4.378-4.775 6.736a.75.75 0 0 0 1.41.512c.743-2.042 2.48-4.24 4.426-6.189A41.395 41.395 0 0 1 25 11.664V26a3 3 0 0 1-3 3H7a2 2 0 0 1-2-2v-2h9a1 1 0 1 0 0-2H4.482a2 2 0 0 1 .51-1.219L6.595 20H9.81a2 2 0 0 0 1.87-1.319l2.41-6.65c.235-.647-.56-.645-.812-.004l-2.48 6.337a1 1 0 0 1-.93.636H3.519a.485.485 0 0 1-.282-.876l4.685-3.455a4 4 0 0 0 1.624-3.091L9.565 11h1.6l.779-.573c.796-.586 1.79-.18 2.122.573H19a2 2 0 1 0 0-4H9.265a1.99 1.99 0 0 1 .463-.555z"/></svg>